<?xml version="1.0" standalone="no"?>
<!DOCTYPE svg PUBLIC "-//W3C//DTD SVG 20010904//EN"
 "http://www.w3.org/TR/2001/REC-SVG-20010904/DTD/svg10.dtd">
<svg version="1.0" xmlns="http://www.w3.org/2000/svg"
 width="500.000000pt" height="500.000000pt" viewBox="0 0 500.000000 500.000000"
 preserveAspectRatio="xMidYMid meet">

<g transform="translate(0.000000,500.000000) scale(0.100000,-0.100000)"
fill="#000000" stroke="none">
<path d="M2913 3848 c-20 -22 -21 -39 -28 -330 l-7 -308 -44 0 c-42 0 -44 -1
-44 -31 0 -39 26 -84 57 -98 16 -8 190 -11 539 -11 577 0 559 -2 588 70 25 63
23 69 -36 72 l-53 3 -5 308 -5 309 -24 19 c-22 18 -45 19 -470 19 l-448 0 -20
-22z m867 -298 l0 -230 -400 0 -400 0 0 230 0 230 400 0 400 0 0 -230z m-302
-362 c-3 -22 -7 -23 -93 -23 -86 0 -90 1 -93 23 -3 21 -1 22 93 22 94 0 96 -1
93 -22z"/>
<path d="M1320 3293 c-18 -6 -330 -314 -330 -325 0 -5 407 -8 905 -8 889 0
904 0 915 20 9 16 6 22 -20 35 -42 22 -88 88 -95 138 -3 24 0 65 8 95 l14 52
-691 -1 c-380 0 -698 -3 -706 -6z"/>
<path d="M2921 2923 l-30 -28 -7 -302 -7 -303 -43 0 c-42 0 -44 -1 -44 -30 0
-17 7 -44 15 -60 31 -61 25 -60 582 -60 485 0 509 1 540 20 37 22 48 41 58 93
l7 37 -55 0 -56 0 -3 306 -3 306 -28 24 -28 24 -434 0 -435 0 -29 -27z m859
-303 l0 -230 -400 0 -400 0 0 230 0 230 400 0 400 0 0 -230z m-302 -362 c-3
-22 -7 -23 -93 -23 -86 0 -90 1 -93 23 -3 21 -1 22 93 22 94 0 96 -1 93 -22z"/>
<path d="M922 2858 c-17 -17 -17 -289 0 -306 9 -9 232 -12 940 -12 l928 0 0
165 0 165 -928 0 c-708 0 -931 -3 -940 -12z"/>
<path d="M1022 1890 c3 -521 4 -561 21 -577 17 -17 66 -18 838 -21 l819 -2 -6
23 c-8 34 13 105 36 117 10 5 28 10 39 10 19 0 20 7 23 293 2 238 6 296 18
316 12 19 13 24 2 28 -30 11 -86 70 -103 108 -35 77 -16 163 41 181 31 10 35
16 35 45 l0 34 -883 3 -883 2 3 -560z m1252 393 c9 -28 -10 -91 -37 -127 -48
-62 -72 -67 -306 -64 -194 3 -212 5 -238 24 -38 28 -71 79 -79 120 -12 67 -28
64 330 64 300 0 325 -1 330 -17z"/>
<path d="M2916 1998 l-25 -23 -7 -307 -7 -308 -44 0 c-41 0 -43 -1 -43 -30 0
-40 24 -86 53 -102 17 -9 149 -12 542 -13 485 0 523 1 548 18 28 18 43 47 54
100 5 27 5 27 -51 27 l-56 0 0 299 0 299 -26 31 -26 31 -443 0 -444 0 -25 -22z
m864 -298 l0 -230 -390 0 c-214 0 -393 0 -397 0 -9 0 -16 427 -9 447 4 10 90
13 401 13 l395 0 0 -230z m-305 -370 c0 -25 -1 -25 -90 -25 l-90 0 -3 28 -3
28 93 -3 c92 -3 93 -3 93 -28z"/>
</g>
</svg>
